<mxfile host="app.diagrams.net" modified="2022-07-09T19:28:33.465Z" agent="5.0 (Windows NT 10.0; Win64; x64) AppleWebKit/537.36 (KHTML, like Gecko) Chrome/103.0.0.0 Safari/537.36" etag="w0083wKKBiRW8BwnrFEV" version="20.0.4" type="github">
  <diagram id="0pszA9JIN0fBKSF9bE4M" name="Page-1">
    <mxGraphModel dx="1609" dy="460" grid="1" gridSize="10" guides="1" tooltips="1" connect="1" arrows="1" fold="1" page="1" pageScale="1" pageWidth="827" pageHeight="1169" math="0" shadow="0">
      <root>
        <mxCell id="0" />
        <mxCell id="1" parent="0" />
        <mxCell id="E8wZ4MvcHC-AcQxwt4h6-40" style="edgeStyle=orthogonalEdgeStyle;rounded=0;orthogonalLoop=1;jettySize=auto;html=1;entryX=0.537;entryY=0;entryDx=0;entryDy=0;entryPerimeter=0;endArrow=open;endFill=0;" edge="1" parent="1" source="E8wZ4MvcHC-AcQxwt4h6-7" target="E8wZ4MvcHC-AcQxwt4h6-36">
          <mxGeometry relative="1" as="geometry" />
        </mxCell>
        <mxCell id="E8wZ4MvcHC-AcQxwt4h6-7" value="Prova" style="swimlane;fontStyle=1;align=center;verticalAlign=top;childLayout=stackLayout;horizontal=1;startSize=26;horizontalStack=0;resizeParent=1;resizeParentMax=0;resizeLast=0;collapsible=1;marginBottom=0;" vertex="1" parent="1">
          <mxGeometry x="340" y="300" width="160" height="104" as="geometry" />
        </mxCell>
        <mxCell id="E8wZ4MvcHC-AcQxwt4h6-8" value="+ DataInicio: Datetime" style="text;strokeColor=none;fillColor=none;align=left;verticalAlign=top;spacingLeft=4;spacingRight=4;overflow=hidden;rotatable=0;points=[[0,0.5],[1,0.5]];portConstraint=eastwest;" vertex="1" parent="E8wZ4MvcHC-AcQxwt4h6-7">
          <mxGeometry y="26" width="160" height="26" as="geometry" />
        </mxCell>
        <mxCell id="E8wZ4MvcHC-AcQxwt4h6-11" value="+ DataFim: Datetime" style="text;strokeColor=none;fillColor=none;align=left;verticalAlign=top;spacingLeft=4;spacingRight=4;overflow=hidden;rotatable=0;points=[[0,0.5],[1,0.5]];portConstraint=eastwest;" vertex="1" parent="E8wZ4MvcHC-AcQxwt4h6-7">
          <mxGeometry y="52" width="160" height="26" as="geometry" />
        </mxCell>
        <mxCell id="E8wZ4MvcHC-AcQxwt4h6-10" value="+ Peso: decimal" style="text;strokeColor=none;fillColor=none;align=left;verticalAlign=top;spacingLeft=4;spacingRight=4;overflow=hidden;rotatable=0;points=[[0,0.5],[1,0.5]];portConstraint=eastwest;" vertex="1" parent="E8wZ4MvcHC-AcQxwt4h6-7">
          <mxGeometry y="78" width="160" height="26" as="geometry" />
        </mxCell>
        <mxCell id="E8wZ4MvcHC-AcQxwt4h6-20" style="edgeStyle=orthogonalEdgeStyle;rounded=0;orthogonalLoop=1;jettySize=auto;html=1;endArrow=open;endFill=0;" edge="1" parent="1" source="E8wZ4MvcHC-AcQxwt4h6-14" target="E8wZ4MvcHC-AcQxwt4h6-7">
          <mxGeometry relative="1" as="geometry" />
        </mxCell>
        <mxCell id="E8wZ4MvcHC-AcQxwt4h6-14" value="Aluno" style="swimlane;fontStyle=1;align=center;verticalAlign=top;childLayout=stackLayout;horizontal=1;startSize=26;horizontalStack=0;resizeParent=1;resizeParentMax=0;resizeLast=0;collapsible=1;marginBottom=0;" vertex="1" parent="1">
          <mxGeometry x="340" y="120" width="160" height="52" as="geometry" />
        </mxCell>
        <mxCell id="E8wZ4MvcHC-AcQxwt4h6-15" value="+ Nome: String " style="text;strokeColor=none;fillColor=none;align=left;verticalAlign=top;spacingLeft=4;spacingRight=4;overflow=hidden;rotatable=0;points=[[0,0.5],[1,0.5]];portConstraint=eastwest;" vertex="1" parent="E8wZ4MvcHC-AcQxwt4h6-14">
          <mxGeometry y="26" width="160" height="26" as="geometry" />
        </mxCell>
        <mxCell id="E8wZ4MvcHC-AcQxwt4h6-21" value="Turma" style="swimlane;fontStyle=1;align=center;verticalAlign=top;childLayout=stackLayout;horizontal=1;startSize=26;horizontalStack=0;resizeParent=1;resizeParentMax=0;resizeLast=0;collapsible=1;marginBottom=0;" vertex="1" parent="1">
          <mxGeometry x="620" y="300" width="160" height="104" as="geometry" />
        </mxCell>
        <mxCell id="E8wZ4MvcHC-AcQxwt4h6-22" value="+ Descricao: string" style="text;strokeColor=none;fillColor=none;align=left;verticalAlign=top;spacingLeft=4;spacingRight=4;overflow=hidden;rotatable=0;points=[[0,0.5],[1,0.5]];portConstraint=eastwest;" vertex="1" parent="E8wZ4MvcHC-AcQxwt4h6-21">
          <mxGeometry y="26" width="160" height="26" as="geometry" />
        </mxCell>
        <mxCell id="E8wZ4MvcHC-AcQxwt4h6-24" value="+ Semestre:  string&#xa;" style="text;strokeColor=none;fillColor=none;align=left;verticalAlign=top;spacingLeft=4;spacingRight=4;overflow=hidden;rotatable=0;points=[[0,0.5],[1,0.5]];portConstraint=eastwest;" vertex="1" parent="E8wZ4MvcHC-AcQxwt4h6-21">
          <mxGeometry y="52" width="160" height="26" as="geometry" />
        </mxCell>
        <mxCell id="E8wZ4MvcHC-AcQxwt4h6-32" value="+ Sala:  string&#xa;" style="text;strokeColor=none;fillColor=none;align=left;verticalAlign=top;spacingLeft=4;spacingRight=4;overflow=hidden;rotatable=0;points=[[0,0.5],[1,0.5]];portConstraint=eastwest;" vertex="1" parent="E8wZ4MvcHC-AcQxwt4h6-21">
          <mxGeometry y="78" width="160" height="26" as="geometry" />
        </mxCell>
        <mxCell id="E8wZ4MvcHC-AcQxwt4h6-27" style="edgeStyle=orthogonalEdgeStyle;rounded=0;orthogonalLoop=1;jettySize=auto;html=1;entryX=0;entryY=0.5;entryDx=0;entryDy=0;endArrow=open;endFill=0;" edge="1" parent="1" source="E8wZ4MvcHC-AcQxwt4h6-11" target="E8wZ4MvcHC-AcQxwt4h6-24">
          <mxGeometry relative="1" as="geometry" />
        </mxCell>
        <mxCell id="E8wZ4MvcHC-AcQxwt4h6-35" style="edgeStyle=orthogonalEdgeStyle;rounded=0;orthogonalLoop=1;jettySize=auto;html=1;endArrow=open;endFill=0;" edge="1" parent="1" source="E8wZ4MvcHC-AcQxwt4h6-28" target="E8wZ4MvcHC-AcQxwt4h6-21">
          <mxGeometry relative="1" as="geometry" />
        </mxCell>
        <mxCell id="E8wZ4MvcHC-AcQxwt4h6-28" value="Curso" style="swimlane;fontStyle=1;align=center;verticalAlign=top;childLayout=stackLayout;horizontal=1;startSize=26;horizontalStack=0;resizeParent=1;resizeParentMax=0;resizeLast=0;collapsible=1;marginBottom=0;" vertex="1" parent="1">
          <mxGeometry x="620" y="470" width="160" height="78" as="geometry" />
        </mxCell>
        <mxCell id="E8wZ4MvcHC-AcQxwt4h6-29" value="+ Descricao: string" style="text;strokeColor=none;fillColor=none;align=left;verticalAlign=top;spacingLeft=4;spacingRight=4;overflow=hidden;rotatable=0;points=[[0,0.5],[1,0.5]];portConstraint=eastwest;" vertex="1" parent="E8wZ4MvcHC-AcQxwt4h6-28">
          <mxGeometry y="26" width="160" height="26" as="geometry" />
        </mxCell>
        <mxCell id="E8wZ4MvcHC-AcQxwt4h6-31" value="+ Semestre:  string&#xa;" style="text;strokeColor=none;fillColor=none;align=left;verticalAlign=top;spacingLeft=4;spacingRight=4;overflow=hidden;rotatable=0;points=[[0,0.5],[1,0.5]];portConstraint=eastwest;" vertex="1" parent="E8wZ4MvcHC-AcQxwt4h6-28">
          <mxGeometry y="52" width="160" height="26" as="geometry" />
        </mxCell>
        <mxCell id="E8wZ4MvcHC-AcQxwt4h6-36" value="Questao" style="swimlane;fontStyle=1;align=center;verticalAlign=top;childLayout=stackLayout;horizontal=1;startSize=26;horizontalStack=0;resizeParent=1;resizeParentMax=0;resizeLast=0;collapsible=1;marginBottom=0;" vertex="1" parent="1">
          <mxGeometry x="334" y="490" width="160" height="78" as="geometry" />
        </mxCell>
        <mxCell id="E8wZ4MvcHC-AcQxwt4h6-37" value="+ Descricao" style="text;strokeColor=none;fillColor=none;align=left;verticalAlign=top;spacingLeft=4;spacingRight=4;overflow=hidden;rotatable=0;points=[[0,0.5],[1,0.5]];portConstraint=eastwest;" vertex="1" parent="E8wZ4MvcHC-AcQxwt4h6-36">
          <mxGeometry y="26" width="160" height="26" as="geometry" />
        </mxCell>
        <mxCell id="E8wZ4MvcHC-AcQxwt4h6-39" value="+ Peso : decimal" style="text;strokeColor=none;fillColor=none;align=left;verticalAlign=top;spacingLeft=4;spacingRight=4;overflow=hidden;rotatable=0;points=[[0,0.5],[1,0.5]];portConstraint=eastwest;" vertex="1" parent="E8wZ4MvcHC-AcQxwt4h6-36">
          <mxGeometry y="52" width="160" height="26" as="geometry" />
        </mxCell>
        <mxCell id="E8wZ4MvcHC-AcQxwt4h6-44" style="edgeStyle=orthogonalEdgeStyle;rounded=0;orthogonalLoop=1;jettySize=auto;html=1;entryX=0.501;entryY=0.983;entryDx=0;entryDy=0;entryPerimeter=0;endArrow=block;endFill=0;" edge="1" parent="1" source="E8wZ4MvcHC-AcQxwt4h6-41" target="E8wZ4MvcHC-AcQxwt4h6-39">
          <mxGeometry relative="1" as="geometry" />
        </mxCell>
        <mxCell id="E8wZ4MvcHC-AcQxwt4h6-58" style="edgeStyle=orthogonalEdgeStyle;rounded=0;orthogonalLoop=1;jettySize=auto;html=1;endArrow=open;endFill=0;" edge="1" parent="1" source="E8wZ4MvcHC-AcQxwt4h6-41" target="E8wZ4MvcHC-AcQxwt4h6-57">
          <mxGeometry relative="1" as="geometry" />
        </mxCell>
        <mxCell id="E8wZ4MvcHC-AcQxwt4h6-41" value="MultiplaEscolha" style="swimlane;fontStyle=1;align=center;verticalAlign=top;childLayout=stackLayout;horizontal=1;startSize=26;horizontalStack=0;resizeParent=1;resizeParentMax=0;resizeLast=0;collapsible=1;marginBottom=0;" vertex="1" parent="1">
          <mxGeometry x="210" y="630" width="180" height="50" as="geometry" />
        </mxCell>
        <mxCell id="E8wZ4MvcHC-AcQxwt4h6-48" style="edgeStyle=orthogonalEdgeStyle;rounded=0;orthogonalLoop=1;jettySize=auto;html=1;endArrow=block;endFill=0;" edge="1" parent="1" source="E8wZ4MvcHC-AcQxwt4h6-45" target="E8wZ4MvcHC-AcQxwt4h6-36">
          <mxGeometry relative="1" as="geometry" />
        </mxCell>
        <mxCell id="E8wZ4MvcHC-AcQxwt4h6-52" style="edgeStyle=orthogonalEdgeStyle;rounded=0;orthogonalLoop=1;jettySize=auto;html=1;entryX=0;entryY=0.5;entryDx=0;entryDy=0;endArrow=open;endFill=0;" edge="1" parent="1" source="E8wZ4MvcHC-AcQxwt4h6-45" target="E8wZ4MvcHC-AcQxwt4h6-49">
          <mxGeometry relative="1" as="geometry" />
        </mxCell>
        <mxCell id="E8wZ4MvcHC-AcQxwt4h6-45" value="RelacaoColuna" style="swimlane;fontStyle=1;align=center;verticalAlign=top;childLayout=stackLayout;horizontal=1;startSize=26;horizontalStack=0;resizeParent=1;resizeParentMax=0;resizeLast=0;collapsible=1;marginBottom=0;" vertex="1" parent="1">
          <mxGeometry x="460" y="630" width="160" height="52" as="geometry" />
        </mxCell>
        <mxCell id="E8wZ4MvcHC-AcQxwt4h6-53" style="edgeStyle=orthogonalEdgeStyle;rounded=0;orthogonalLoop=1;jettySize=auto;html=1;entryX=0.5;entryY=0;entryDx=0;entryDy=0;endArrow=open;endFill=0;" edge="1" parent="1" source="E8wZ4MvcHC-AcQxwt4h6-49" target="E8wZ4MvcHC-AcQxwt4h6-50">
          <mxGeometry relative="1" as="geometry" />
        </mxCell>
        <mxCell id="E8wZ4MvcHC-AcQxwt4h6-49" value=" ColunaAfirmacao" style="swimlane;fontStyle=1;align=center;verticalAlign=top;childLayout=stackLayout;horizontal=1;startSize=26;horizontalStack=0;resizeParent=1;resizeParentMax=0;resizeLast=0;collapsible=1;marginBottom=0;" vertex="1" parent="1">
          <mxGeometry x="720" y="630" width="200" height="52" as="geometry" />
        </mxCell>
        <mxCell id="E8wZ4MvcHC-AcQxwt4h6-54" value="+ DescriccaoAlternativa: string" style="text;strokeColor=none;fillColor=none;align=left;verticalAlign=top;spacingLeft=4;spacingRight=4;overflow=hidden;rotatable=0;points=[[0,0.5],[1,0.5]];portConstraint=eastwest;" vertex="1" parent="E8wZ4MvcHC-AcQxwt4h6-49">
          <mxGeometry y="26" width="200" height="26" as="geometry" />
        </mxCell>
        <mxCell id="E8wZ4MvcHC-AcQxwt4h6-50" value=" ColunaResposta" style="swimlane;fontStyle=1;align=center;verticalAlign=top;childLayout=stackLayout;horizontal=1;startSize=26;horizontalStack=0;resizeParent=1;resizeParentMax=0;resizeLast=0;collapsible=1;marginBottom=0;" vertex="1" parent="1">
          <mxGeometry x="730" y="790" width="180" height="52" as="geometry" />
        </mxCell>
        <mxCell id="E8wZ4MvcHC-AcQxwt4h6-60" value="+ DescriccaoRespos: string" style="text;strokeColor=none;fillColor=none;align=left;verticalAlign=top;spacingLeft=4;spacingRight=4;overflow=hidden;rotatable=0;points=[[0,0.5],[1,0.5]];portConstraint=eastwest;" vertex="1" parent="E8wZ4MvcHC-AcQxwt4h6-50">
          <mxGeometry y="26" width="180" height="26" as="geometry" />
        </mxCell>
        <mxCell id="E8wZ4MvcHC-AcQxwt4h6-57" value="MultiplaEscolha" style="swimlane;fontStyle=1;align=center;verticalAlign=top;childLayout=stackLayout;horizontal=1;startSize=26;horizontalStack=0;resizeParent=1;resizeParentMax=0;resizeLast=0;collapsible=1;marginBottom=0;" vertex="1" parent="1">
          <mxGeometry x="-30" y="616" width="180" height="78" as="geometry" />
        </mxCell>
        <mxCell id="E8wZ4MvcHC-AcQxwt4h6-55" value="+ DescricaoAlternativa: string" style="text;strokeColor=none;fillColor=none;align=left;verticalAlign=top;spacingLeft=4;spacingRight=4;overflow=hidden;rotatable=0;points=[[0,0.5],[1,0.5]];portConstraint=eastwest;" vertex="1" parent="E8wZ4MvcHC-AcQxwt4h6-57">
          <mxGeometry y="26" width="180" height="26" as="geometry" />
        </mxCell>
        <mxCell id="E8wZ4MvcHC-AcQxwt4h6-56" value="+ Correta : bool" style="text;strokeColor=none;fillColor=none;align=left;verticalAlign=top;spacingLeft=4;spacingRight=4;overflow=hidden;rotatable=0;points=[[0,0.5],[1,0.5]];portConstraint=eastwest;" vertex="1" parent="E8wZ4MvcHC-AcQxwt4h6-57">
          <mxGeometry y="52" width="180" height="26" as="geometry" />
        </mxCell>
        <mxCell id="E8wZ4MvcHC-AcQxwt4h6-61" value="Aluno" style="swimlane;fontStyle=1;align=center;verticalAlign=top;childLayout=stackLayout;horizontal=1;startSize=26;horizontalStack=0;resizeParent=1;resizeParentMax=0;resizeLast=0;collapsible=1;marginBottom=0;" vertex="1" parent="1">
          <mxGeometry x="120" y="210" width="160" height="78" as="geometry" />
        </mxCell>
        <mxCell id="E8wZ4MvcHC-AcQxwt4h6-62" value="+ DataInicio: DateTime" style="text;strokeColor=none;fillColor=none;align=left;verticalAlign=top;spacingLeft=4;spacingRight=4;overflow=hidden;rotatable=0;points=[[0,0.5],[1,0.5]];portConstraint=eastwest;" vertex="1" parent="E8wZ4MvcHC-AcQxwt4h6-61">
          <mxGeometry y="26" width="160" height="26" as="geometry" />
        </mxCell>
        <mxCell id="E8wZ4MvcHC-AcQxwt4h6-63" value="+ DataInicio: DateTime" style="text;strokeColor=none;fillColor=none;align=left;verticalAlign=top;spacingLeft=4;spacingRight=4;overflow=hidden;rotatable=0;points=[[0,0.5],[1,0.5]];portConstraint=eastwest;" vertex="1" parent="E8wZ4MvcHC-AcQxwt4h6-61">
          <mxGeometry y="52" width="160" height="26" as="geometry" />
        </mxCell>
      </root>
    </mxGraphModel>
  </diagram>
</mxfile>
